<svg width="20" height="20" viewBox="0 0 20 20" fill="none" xmlns="http://www.w3.org/2000/svg">
<path fill-rule="evenodd" clip-rule="evenodd" d="M6.87584 5.01225C6.87576 5.00812 6.87572 5.00398 6.87572 4.99984V4.1665C6.87572 2.44061 8.27483 1.0415 10.0007 1.0415C11.7266 1.0415 13.1257 2.44061 13.1257 4.1665V4.99984C13.1257 5.00398 13.1257 5.00812 13.1256 5.01225C14.1983 5.04445 14.8547 5.16017 15.3558 5.57606C16.0501 6.15229 16.233 7.12766 16.5988 9.0784L17.2238 12.4117C17.7381 15.1548 17.9953 16.5264 17.2455 17.4298C16.4957 18.3332 15.1003 18.3332 12.3094 18.3332H7.69202C4.90113 18.3332 3.50569 18.3332 2.75593 17.4298C2.00616 16.5264 2.26333 15.1548 2.77766 12.4117L3.40266 9.0784C3.76842 7.12766 3.9513 6.15229 4.64561 5.57606C5.14674 5.16017 5.80313 5.04445 6.87584 5.01225ZM8.12572 4.1665C8.12572 3.13097 8.96519 2.2915 10.0007 2.2915C11.0363 2.2915 11.8757 3.13097 11.8757 4.1665V4.99984C11.8757 4.99984 11.8757 4.99983 11.8757 4.99984C11.813 4.99982 11.7492 4.99984 11.6844 4.99984H8.31702C8.2522 4.99984 8.18844 4.99984 8.12572 4.99986C8.12572 4.99985 8.12572 4.99986 8.12572 4.99986V4.1665Z" fill="white"/>
</svg>
