<svg width="40" height="40" viewBox="0 0 40 40" fill="none" xmlns="http://www.w3.org/2000/svg">
<path fill-rule="evenodd" clip-rule="evenodd" d="M19.8984 7.10427C19.0651 7.97612 18.0176 9.39776 16.5004 11.4646L11.8935 17.7407C10.8963 19.0991 10.2552 19.9793 9.90362 20.644C9.77546 20.8863 9.71867 21.0394 9.69427 21.1279C9.78564 21.1659 9.96576 21.2211 10.2979 21.2679C11.0736 21.3771 12.1979 21.3807 13.9156 21.3807C13.9443 21.3807 13.9729 21.3807 14.0015 21.3807C14.855 21.3806 15.6329 21.3805 16.2655 21.4617C16.9556 21.5503 17.693 21.7581 18.3107 22.3431L18.3165 22.3486L18.3583 22.3889L18.364 22.3946C18.9776 23.001 19.2034 23.7387 19.2988 24.4339C19.3843 25.0578 19.3842 25.821 19.3841 26.6403C19.3841 26.6703 19.3841 26.7004 19.3841 26.7305L19.384 27.1995C19.384 29.737 19.3874 31.4771 19.5441 32.6485C19.6106 33.1453 19.6899 33.4205 19.7476 33.566C19.8864 33.4824 20.1321 33.2976 20.5169 32.8951C21.3502 32.0232 22.3977 30.6016 23.9149 28.5347L28.5218 22.2588C29.519 20.9003 30.1601 20.0201 30.5117 19.3554C30.6399 19.1131 30.6967 18.96 30.7211 18.8715C30.6297 18.8335 30.4496 18.7783 30.1175 18.7315C29.3417 18.6223 28.2174 18.6187 26.4997 18.6187L26.4138 18.6187C25.5603 18.6188 24.7825 18.6189 24.1498 18.5377C23.4597 18.4491 22.7224 18.2413 22.1047 17.6564L22.0988 17.6508L22.0571 17.6105L22.0514 17.6048C21.4378 16.9984 21.212 16.2608 21.1166 15.5655C21.031 14.9417 21.0311 14.1785 21.0313 13.3592C21.0313 13.3292 21.0313 13.2991 21.0313 13.269V12.7998C21.0313 10.2623 21.0279 8.52222 20.8711 7.35087C20.8046 6.85403 20.7254 6.57889 20.6676 6.43335C20.5288 6.51695 20.2831 6.70173 19.8984 7.10427ZM20.603 6.30304C20.5921 6.29355 20.5878 6.28572 20.5878 6.28572C20.5878 6.28572 20.5936 6.28944 20.603 6.30304ZM30.8041 18.9173C30.8041 18.9173 30.7975 18.9139 30.789 18.9052C30.8007 18.9126 30.8041 18.9173 30.8041 18.9173ZM30.7371 18.796C30.7349 18.7802 30.7371 18.7702 30.7371 18.7702C30.7371 18.7702 30.7394 18.7774 30.7371 18.796ZM19.8122 33.6963C19.8232 33.7058 19.8275 33.7136 19.8275 33.7136C19.8275 33.7136 19.8216 33.7099 19.8122 33.6963ZM9.6112 21.0821C9.6112 21.0821 9.61787 21.0855 9.62632 21.0942C9.61461 21.0868 9.6112 21.0821 9.6112 21.0821ZM9.67822 21.2034C9.68048 21.2192 9.67823 21.2292 9.67823 21.2292C9.67823 21.2292 9.67597 21.222 9.67822 21.2034ZM17.7303 5.00346C18.6373 4.05441 19.9582 2.95655 21.5874 3.45926C23.2499 3.97224 23.6809 5.6598 23.8531 6.94627C24.0403 8.34526 24.0403 10.2928 24.0402 12.6735V13.269C24.0402 14.2101 24.0436 14.7597 24.0973 15.151C24.1223 15.3336 24.1507 15.4167 24.1652 15.4481L24.1688 15.4499C24.1731 15.4521 24.1804 15.4554 24.1912 15.4597C24.2379 15.478 24.3372 15.5075 24.5304 15.5323C24.9495 15.5861 25.5319 15.589 26.4997 15.589L26.6146 15.589C28.1856 15.5889 29.5243 15.5888 30.5341 15.731C31.5486 15.8738 32.7419 16.223 33.3854 17.3858C33.4022 17.4162 33.4186 17.4468 33.4344 17.4777C34.0559 18.6858 33.6452 19.8764 33.1675 20.7796C32.6981 21.667 31.9184 22.729 31.013 23.9622L26.2624 30.4339C24.8347 32.379 23.6713 33.9638 22.6849 34.9959C21.7779 35.945 20.457 37.0428 18.8278 36.5401C17.1653 36.0271 16.7343 34.3395 16.5621 33.053C16.3749 31.654 16.375 29.7065 16.3751 27.3257L16.3751 26.7305C16.3751 25.7893 16.3718 25.2397 16.3181 24.8484C16.293 24.6659 16.2646 24.5827 16.2502 24.5513L16.2678 24.568L17.3101 23.4757L16.2562 24.5567L16.252 24.5524L16.2502 24.5513L17.28 23.4465L16.2409 24.5355L16.2376 24.5389L16.2502 24.5513L16.2466 24.5495C16.2422 24.5473 16.235 24.544 16.2242 24.5397C16.1774 24.5214 16.0781 24.4919 15.885 24.4671C15.4658 24.4133 14.8834 24.4104 13.9156 24.4104L13.8007 24.4104C12.2298 24.4105 10.8911 24.4106 9.8812 24.2684C8.86672 24.1255 7.67336 23.7763 7.02987 22.6135C7.01316 22.5833 6.99684 22.5527 6.98096 22.5218C6.35949 21.3137 6.77012 20.123 7.24785 19.2198C7.71722 18.3325 8.49694 17.2704 9.40223 16.0373C9.42598 16.0049 9.44982 15.9725 9.47374 15.9399L14.1529 9.56544C15.5806 7.62041 16.7439 6.03552 17.7303 5.00346ZM16.2491 24.549C16.2431 24.5419 16.2409 24.5355 16.2409 24.5355C16.2409 24.5355 16.2446 24.5395 16.2491 24.549Z" fill="#121214"/>
</svg>
